<svg width="645" height="501" viewBox="0 0 645 501" fill="none" xmlns="http://www.w3.org/2000/svg">
<path d="M140.566 256.45C212.573 254.677 230.963 235.165 230.963 235.165C230.963 235.165 218.53 258.579 140.825 259.289C63.1195 259.998 34.6276 239.244 34.6276 239.244C34.6276 239.244 68.5589 258.224 140.566 256.45Z" fill="#244196"/>
<path d="M141.581 265.324C223.001 263.268 243.795 240.651 243.795 240.651C243.795 240.651 229.737 267.791 141.874 268.613C54.0115 269.436 21.7951 245.38 21.7951 245.38C21.7951 245.38 60.1618 267.38 141.581 265.324Z" fill="#244196"/>
<path d="M124.566 155.883C64.6537 155.883 14.4452 170.695 1.13421 190.613C0.800191 191.115 1.08147 191.845 1.62938 191.904C1.62938 191.904 15.9336 197.336 37.7504 201.885C38.5181 202.047 38.6206 203.235 37.8647 203.47C37.8647 203.47 21.3043 208.614 0.518914 215.423C-0.113966 215.631 -0.190156 216.632 0.413424 216.943C23.326 228.72 81.3371 246.411 124.566 246.411C194.649 246.411 251.462 226.848 251.462 201.847C251.462 201.181 248.772 198.936 248.693 198.275C248.614 197.615 250.802 196.632 250.644 195.977C245.016 172.837 190.904 155.883 124.566 155.883Z" fill="url(#paint0_radial)"/>
<path opacity="0.23" d="M237.439 194.225C237.439 194.225 231.095 177.603 111.484 195.414C111.484 195.414 213.635 183.291 237.439 194.225Z" fill="#00993E"/>
<path d="M108.841 206.945C109.368 207.708 109.899 209.075 109.811 210.419C109.723 211.769 109.477 212.588 108.235 214.158C107.303 215.335 107.775 215.904 109.257 216.823C110.048 217.313 111.062 218.267 111.745 219.857C112.424 221.439 112.208 222.349 112.041 223.84C111.868 225.407 112.961 225.982 113.693 225.219L131.045 210.258C131.062 210.237 129.202 204.447 129.158 204.444L109.184 204.485C108.404 204.353 107.751 205.369 108.841 206.945Z" fill="#2ECC71"/>
<path opacity="0.48" d="M109.814 210.419C109.749 211.417 109.699 211.379 109.427 212.283L127.209 213.565C127.227 213.545 128.926 212.124 128.885 212.121L109.814 210.419Z" fill="#00993E"/>
<path d="M128.66 204.406C128.73 206.953 128.797 209.501 128.868 212.048C157.488 211.044 181.192 208.755 194.122 202.578C200.061 199.74 199.047 188.201 190.62 188.142C184.628 188.098 150.526 202.595 128.66 204.406Z" fill="#2ECC71"/>
<path d="M146.579 205.298C146.761 205.316 146.952 205.339 147.133 205.354C147.133 205.366 147.133 205.38 147.133 205.392H147.265C147.271 205.169 147.277 204.946 147.283 204.723H146.785C146.776 204.72 146.697 204.946 146.579 205.298Z" fill="url(#paint1_radial)"/>
<path d="M166.757 204.761L147.282 204.723V204.685C125.415 202.874 91.3129 188.377 85.3181 188.418C81.0638 188.447 78.7051 191.408 78.1718 194.692C78.9043 191.687 81.2073 189.116 85.1687 189.087C91.1137 189.046 124.694 203.297 146.579 205.298C146.76 205.316 146.951 205.339 147.132 205.354C147.132 205.366 147.132 205.38 147.132 205.392H147.264L166.605 205.43C167.1 205.348 167.54 205.727 167.522 206.413C167.927 205.316 167.393 204.656 166.757 204.761Z" fill="url(#paint2_radial)"/>
<path d="M167.555 215.106C166.313 213.536 166.067 212.717 165.979 211.367C165.935 210.692 166.046 210.011 166.237 209.404C166.404 208.532 166.747 207.734 167.101 207.22C167.303 206.927 167.429 206.663 167.523 206.41C167.541 205.724 167.101 205.348 166.606 205.427L147.265 205.389H147.133C147.133 205.377 147.133 205.366 147.133 205.351C146.952 205.336 146.764 205.313 146.579 205.295C124.695 203.291 91.1145 189.04 85.1696 189.084C81.2082 189.113 78.9052 191.684 78.1727 194.689C77.3465 198.076 78.5214 202.017 81.6682 203.52C94.5836 209.691 118.246 211.981 146.817 212.984L162.097 226.158C162.753 226.845 163.696 226.44 163.755 225.216C163.761 225.078 163.767 224.937 163.749 224.779C163.612 223.54 163.468 222.686 163.802 221.53C163.869 221.295 163.928 221.067 164.045 220.797C164.728 219.206 165.742 218.252 166.533 217.762C167.582 217.113 168.109 216.635 168.009 215.998C167.968 215.74 167.828 215.452 167.555 215.106Z" fill="#2ECC71"/>
<path d="M182.123 137.999C178.815 132.796 176.023 124.69 176.023 121.779C176.023 117.685 181.742 115.181 185.176 112.176C173.597 119.768 154.218 122.917 136.773 122.917C119.328 122.917 99.9485 119.768 88.3691 112.176C91.8031 115.181 97.5224 117.685 97.5224 121.779C97.5224 124.69 94.7272 132.796 91.4193 137.999C87.5751 144.047 82.5472 156.869 82.5472 164.121C82.5472 188.444 106.438 201.146 136.77 201.146C167.101 201.146 190.992 188.444 190.992 164.121C190.995 156.872 185.967 144.05 182.123 137.999Z" fill="url(#paint3_radial)"/>
<path opacity="0.26" d="M167.828 136.778C165.563 132.769 163.65 126.527 163.65 124.285C163.65 121.133 167.567 119.202 169.917 116.889C161.988 122.738 148.718 125.162 136.773 125.162C124.827 125.162 111.557 122.738 103.629 116.889C105.978 119.202 109.896 121.133 109.896 124.285C109.896 126.527 107.983 132.769 105.718 136.778C103.084 141.438 99.6438 151.314 99.6438 156.899C99.6438 175.634 116.002 185.418 136.773 185.418C157.543 185.418 173.902 175.634 173.902 156.899C173.902 151.317 170.459 141.438 167.828 136.778Z" fill="#3BE07E"/>
<path opacity="0.3" d="M181.063 136.174C178.241 131.061 176.023 124.352 176.023 121.761C176.023 118.853 178.912 116.746 181.819 114.691C169.413 121.256 153.781 125.165 136.773 125.165C119.764 125.165 104.135 121.253 91.7269 114.688C94.6335 116.743 97.5224 118.85 97.5224 121.761C97.5224 124.355 95.3044 131.061 92.4828 136.176C104.768 129.855 120.113 126.298 136.77 126.298C153.43 126.295 168.777 129.852 181.063 136.174Z" fill="#1AAA54"/>
<path d="M136.773 26.9752C96.4618 26.9752 63.7835 48.9651 63.7835 76.0879C63.7835 88.4519 70.5869 99.7389 81.7942 108.373C81.9436 108.487 82.0872 108.602 82.2366 108.716C83.5375 109.459 84.7535 110.301 85.8464 111.255C98.9992 119.88 116.96 125.201 136.776 125.201C156.591 125.201 174.552 119.88 187.705 111.255C188.798 110.301 190.014 109.459 191.315 108.716C191.464 108.602 191.608 108.487 191.757 108.373C202.964 99.7389 209.768 88.4519 209.768 76.0879C209.762 48.9622 177.084 26.9752 136.773 26.9752Z" fill="#2ECC71"/>
<path d="M194.406 46.0656C193.571 45.3407 192.715 44.6305 191.822 43.9408C190.992 45.326 190.025 46.5968 188.915 47.7208C183.922 52.792 176.401 55.0605 169.073 52.9886C162.41 51.1045 157.485 46.0773 155.434 39.9672C155.783 47.574 162.908 53.2029 170.219 55.2278C177.321 57.1941 187.638 55.3804 192.27 50.2065C202.273 58.1068 208.654 68.2522 209.621 79.4159C209.706 78.4415 209.762 77.4613 209.762 76.4723C209.762 64.9711 204.007 54.409 194.406 46.0656Z" fill="#27C165"/>
<path d="M196.079 81.0564C182.085 113.529 96.4999 115.604 77.4637 80.1026C77.4637 80.1026 98.9464 67.1487 137.64 67.1487C174.283 67.1487 196.079 81.0564 196.079 81.0564Z" fill="url(#paint4_linear)"/>
<path d="M79.1396 46.0656C79.9747 45.3407 80.8302 44.6305 81.7239 43.9408C82.5531 45.326 83.52 46.5968 84.6304 47.7208C89.6232 52.792 97.1445 55.0605 104.472 52.9886C111.135 51.1045 116.061 46.0773 118.112 39.9672C117.763 47.574 110.637 53.2029 103.327 55.2278C96.2244 57.1941 85.9079 55.3804 81.2756 50.2065C71.2726 58.1068 64.891 68.2522 63.9241 79.4159C63.8392 78.4415 63.7835 77.4613 63.7835 76.4723C63.7805 64.9711 69.5351 54.409 79.1396 46.0656Z" fill="#27C165"/>
<path d="M136.773 32.3223C142.955 32.3223 148.947 32.8564 154.678 33.8307C154.687 32.0963 154.898 30.3384 155.375 28.5893C149.436 27.5386 143.201 26.9752 136.773 26.9752C130.341 26.9752 124.109 27.5386 118.17 28.5893C118.648 30.3384 118.859 32.0963 118.867 33.8307C124.599 32.8564 130.59 32.3223 136.773 32.3223Z" fill="#27C165"/>
<path d="M194.222 39.4158C197.247 28.6808 191.01 17.5225 180.293 14.493C169.575 11.4634 158.434 17.7099 155.41 28.4449C152.385 39.1799 158.622 50.3383 169.339 53.3678C180.057 56.3973 191.197 50.1508 194.222 39.4158Z" fill="#00993E"/>
<path d="M192.993 38.2919C195.906 27.9531 189.9 17.2066 179.578 14.2889C169.256 11.3712 158.527 17.3871 155.614 27.7259C152.701 38.0647 158.707 48.8112 169.029 51.7289C179.351 54.6466 190.08 48.6307 192.993 38.2919Z" fill="#2ECC71"/>
<path d="M174.303 49.103C183.179 49.103 190.374 41.8962 190.374 33.006C190.374 24.1159 183.179 16.909 174.303 16.909C165.427 16.909 158.232 24.1159 158.232 33.006C158.232 41.8962 165.427 49.103 174.303 49.103Z" fill="url(#paint5_radial)"/>
<path d="M174.302 28.5218C169.992 28.5218 166.499 31.8791 166.198 36.1198L170.88 37.3465L166.763 39.8263C167.991 42.7875 170.9 44.8711 174.299 44.8711C178.805 44.8711 182.459 41.2115 182.459 36.6979C182.462 32.1814 178.808 28.5218 174.302 28.5218Z" fill="#2A5351"/>
<path d="M166.199 36.1227C166.184 36.3164 166.14 36.5013 166.14 36.6979C166.14 37.8072 166.366 38.8637 166.764 39.8263L170.881 37.3465L166.199 36.1227Z" fill="white"/>
<path d="M104.201 53.3603C114.918 50.3307 121.155 39.1724 118.13 28.4374C115.105 17.7024 103.965 11.4559 93.2474 14.4855C82.5298 17.515 76.2933 28.6733 79.318 39.4083C82.3426 50.1433 93.483 56.3898 104.201 53.3603Z" fill="#00993E"/>
<path d="M104.515 51.7239C114.837 48.8062 120.843 38.0597 117.93 27.7209C115.017 17.3821 104.288 11.3662 93.9658 14.2839C83.6436 17.2016 77.6374 27.9481 80.5504 38.2869C83.4634 48.6257 94.1926 54.6417 104.515 51.7239Z" fill="#2ECC71"/>
<path d="M99.2424 49.103C108.118 49.103 115.313 41.8962 115.313 33.006C115.313 24.1159 108.118 16.909 99.2424 16.909C90.3666 16.909 83.1713 24.1159 83.1713 33.006C83.1713 41.8962 90.3666 49.103 99.2424 49.103Z" fill="url(#paint6_radial)"/>
<path d="M99.2413 28.5218C94.9312 28.5218 91.4387 31.8791 91.1369 36.1198L95.819 37.3465L91.7024 39.8263C92.93 42.7875 95.8395 44.8711 99.2383 44.8711C103.745 44.8711 107.398 41.2115 107.398 36.6979C107.401 32.1814 103.748 28.5218 99.2413 28.5218Z" fill="#2A5351"/>
<path d="M91.138 36.1227C91.1233 36.3164 91.0794 36.5013 91.0794 36.6979C91.0794 37.8072 91.305 38.8637 91.7035 39.8263L95.8201 37.3465L91.138 36.1227Z" fill="white"/>
<path d="M77.4929 81.2002C77.49 81.2031 77.4637 81.2207 77.4637 81.2207C96.4999 126.662 182.085 124.009 196.079 82.4416C196.079 82.4416 196.02 82.3946 196.006 82.3858C174.816 115.789 104.288 114.462 77.4929 81.2002Z" fill="url(#paint7_linear)"/>
<path d="M196.079 81.0564C182.085 113.529 96.4999 115.604 77.4666 80.1026" stroke="#00993E" stroke-miterlimit="10"/>
<path d="M131.191 50.2388C132.086 50.2388 132.811 49.7684 132.811 49.1882C132.811 48.6079 132.086 48.1375 131.191 48.1375C130.296 48.1375 129.571 48.6079 129.571 49.1882C129.571 49.7684 130.296 50.2388 131.191 50.2388Z" fill="#44A85F"/>
<path d="M142.351 50.2388C143.246 50.2388 143.972 49.7684 143.972 49.1882C143.972 48.6079 143.246 48.1375 142.351 48.1375C141.457 48.1375 140.731 48.6079 140.731 49.1882C140.731 49.7684 141.457 50.2388 142.351 50.2388Z" fill="#44A85F"/>
<path d="M199.912 83.0659C200.229 82.4181 198.777 81.0549 196.67 80.0211C194.563 78.9873 192.598 78.6743 192.281 79.322C191.964 79.9698 193.416 81.333 195.523 82.3668C197.63 83.4007 199.595 83.7137 199.912 83.0659Z" fill="#00993E"/>
<path d="M78.0537 81.2717C80.1609 80.2378 81.6124 78.8746 81.2957 78.2269C80.9789 77.5791 79.0138 77.8921 76.9065 78.9259C74.7992 79.9598 73.3477 81.323 73.6645 81.9707C73.9813 82.6185 75.9464 82.3055 78.0537 81.2717Z" fill="#00993E"/>
<path opacity="0.17" d="M186.211 66.2741C188.549 66.2741 190.444 64.3755 190.444 62.0335C190.444 59.6914 188.549 57.7928 186.211 57.7928C183.872 57.7928 181.977 59.6914 181.977 62.0335C181.977 64.3755 183.872 66.2741 186.211 66.2741Z" fill="#006D2C"/>
<path opacity="0.17" d="M201.184 61.3004C203.108 60.6352 204.13 58.5336 203.466 56.6061C202.802 54.6787 200.704 53.6554 198.779 54.3205C196.855 54.9856 195.833 57.0873 196.497 59.0147C197.161 60.9422 199.26 61.9655 201.184 61.3004Z" fill="#006D2C"/>
<path opacity="0.17" d="M201.025 72.5355C202.461 72.039 203.224 70.4703 202.728 69.0316C202.232 67.5929 200.666 66.8291 199.23 67.3255C197.794 67.822 197.031 69.3907 197.527 70.8294C198.022 72.2681 199.588 73.0319 201.025 72.5355Z" fill="#006D2C"/>
<path opacity="0.17" d="M87.6952 65.5639C90.0335 65.5639 91.9291 63.6653 91.9291 61.3233C91.9291 58.9812 90.0335 57.0826 87.6952 57.0826C85.3569 57.0826 83.4614 58.9812 83.4614 61.3233C83.4614 63.6653 85.3569 65.5639 87.6952 65.5639Z" fill="#006D2C"/>
<path opacity="0.17" d="M77.3971 58.277C78.0611 56.3496 77.0395 54.2479 75.1151 53.5828C73.1908 52.9177 71.0925 53.941 70.4285 55.8684C69.7644 57.7959 70.7861 59.8975 72.7104 60.5627C74.6348 61.2278 76.7331 60.2044 77.3971 58.277Z" fill="#006D2C"/>
<path opacity="0.17" d="M76.3688 70.0901C76.8645 68.6514 76.1019 67.0827 74.6655 66.5862C73.2292 66.0897 71.6629 66.8536 71.1673 68.2923C70.6716 69.731 71.4342 71.2997 72.8706 71.7962C74.307 72.2926 75.8732 71.5288 76.3688 70.0901Z" fill="#006D2C"/>
<path opacity="0.17" d="M138.624 37.3608C139.302 36.283 138.979 34.8586 137.903 34.1794C136.827 33.5001 135.405 33.8231 134.727 34.9009C134.049 35.9787 134.371 37.403 135.447 38.0823C136.523 38.7616 137.946 38.4385 138.624 37.3608Z" fill="#006D2C"/>
<path opacity="0.17" d="M128.747 32.1256C131.135 32.1256 133.072 30.1858 133.072 27.794C133.072 27.5122 133.04 27.2393 132.99 26.9722C130.092 27.0691 127.244 27.2892 124.443 27.6091C124.44 27.6707 124.426 27.7323 124.426 27.794C124.423 30.1887 126.36 32.1256 128.747 32.1256Z" fill="#006D2C"/>
<path opacity="0.17" d="M144.578 32.1256C146.966 32.1256 148.903 30.1858 148.903 27.794C148.903 27.7294 148.888 27.6707 148.885 27.6091C146.084 27.2921 143.236 27.0691 140.339 26.9722C140.286 27.2393 140.257 27.5122 140.257 27.794C140.257 30.1887 142.19 32.1256 144.578 32.1256Z" fill="#006D2C"/>
<path d="M166.237 209.404C166.424 208.802 166.688 208.271 166.952 207.89C167.353 207.311 167.514 206.81 167.523 206.41C167.429 206.66 167.306 206.927 167.101 207.22C166.747 207.737 166.404 208.532 166.237 209.404Z" fill="#2ECC71"/>
<path opacity="0.48" d="M80.0333 147.725C82.6117 145.321 85.7057 142.58 88.9522 139.733C88.9551 139.73 88.9551 139.728 88.958 139.725C85.8376 142.404 82.7347 145.133 80.0333 147.725Z" fill="#00993E"/>
<path opacity="0.48" d="M114.08 195.332L100.376 191.399C100.356 191.393 100.338 191.391 100.318 191.391C99.3713 191.347 98.504 191.719 97.877 192.338L89.5821 188.421C89.5821 188.421 85.7878 188.421 84.7887 188.441C84.7887 188.441 91.2757 193.765 97.6455 196.776L101.311 208.063C101.639 209.102 102.972 209.087 103.048 207.602L103.356 202.874C103.403 202.164 104.226 201.542 104.909 202.088L109.368 206.384C110.201 207.109 111.484 206.211 110.831 204.923L108.068 199.423C107.795 198.695 107.988 198.19 108.955 197.867L113.649 196.861C114.839 196.57 114.739 195.561 114.08 195.332Z" fill="#00993E"/>
<path opacity="0.48" d="M81.4748 148.13C84.0532 145.726 87.1473 142.985 90.3937 140.138C90.3967 140.135 90.3967 140.132 90.3996 140.13C87.2791 142.809 84.1763 145.538 81.4748 148.13Z" fill="#00993E"/>
<path d="M75.1079 154.926C75.9108 153.524 78.3016 151.085 81.4777 148.13C84.1792 145.538 87.2821 142.809 90.4025 140.127C90.7922 139.425 91.1761 138.759 91.5482 138.172C91.9144 137.594 92.2748 136.978 92.6264 136.338C92.6205 136.341 92.6176 136.344 92.6118 136.344C94.7272 132.508 96.5028 127.777 97.2587 124.558V124.555C97.3818 124.03 97.4756 123.548 97.5429 123.114C97.5459 123.088 97.5488 123.064 97.5517 123.038C97.6133 122.624 97.6455 122.251 97.6484 121.943C97.6484 121.914 97.6426 121.884 97.6396 121.855C97.6338 121.573 97.5957 121.297 97.5371 121.03C97.5107 120.91 97.4785 120.793 97.4433 120.675C97.3906 120.499 97.3232 120.329 97.2499 120.159C97.1503 119.93 97.036 119.707 96.9042 119.49C96.8309 119.369 96.7636 119.246 96.6815 119.129C96.5555 118.947 96.4149 118.768 96.2684 118.592C96.2274 118.545 96.1893 118.495 96.1483 118.448C96.1072 118.401 96.0633 118.354 96.0194 118.31C95.741 118.988 94.7653 120.223 93.3091 121.873C90.7366 124.881 86.5027 129.189 78.9228 137.485C78.8876 137.524 78.8525 137.565 78.8202 137.603C79.2949 140.69 79.793 146.747 75.1079 154.926Z" fill="#2ECC71"/>
<path opacity="0.48" d="M75.1079 154.926C75.9108 153.524 78.3016 151.085 81.4777 148.13C84.1792 145.538 87.2821 142.809 90.4025 140.127C90.7922 139.425 91.1761 138.759 91.5482 138.172C91.9144 137.594 92.2748 136.978 92.6264 136.338C92.6205 136.341 92.6176 136.344 92.6118 136.344C94.7272 132.508 96.5028 127.777 97.2587 124.558V124.555C97.3818 124.03 97.4756 123.548 97.5429 123.114C97.5459 123.088 97.5488 123.064 97.5517 123.038C97.6133 122.624 97.6455 122.251 97.6484 121.943C97.6484 121.914 97.6426 121.884 97.6396 121.855C97.6338 121.573 97.5957 121.297 97.5371 121.03C97.5107 120.91 97.4785 120.793 97.4433 120.675C97.3906 120.499 97.3232 120.329 97.2499 120.159C97.1503 119.93 97.036 119.707 96.9042 119.49C96.8309 119.369 96.7636 119.246 96.6815 119.129C96.5555 118.947 96.4149 118.768 96.2684 118.592C96.2274 118.545 96.1893 118.495 96.1483 118.448C96.1072 118.401 96.0633 118.354 96.0194 118.31C95.741 118.988 94.7653 120.223 93.3091 121.873C90.7366 124.881 86.5027 129.189 78.9228 137.485C78.8876 137.524 78.8525 137.565 78.8202 137.603C79.2949 140.69 79.793 146.747 75.1079 154.926Z" fill="#00993E"/>
<path d="M101.408 191.223C99.5178 191.159 92.811 185.988 86.3796 179.423C80.2706 173.183 74.4076 165.688 73.177 160.077C72.6174 157.524 76.3034 153.086 81.4748 148.127C78.3016 151.082 75.9078 153.521 75.105 154.924C79.793 146.744 79.292 140.69 78.8232 137.6C71.0089 146.389 63.5872 155.942 64.0296 161.377C66.0835 175.273 94.2027 196.776 101.337 197.815C102.117 197.929 102.498 196.016 102.457 194.223C102.424 192.691 101.408 191.223 101.408 191.223Z" fill="#2ECC71"/>
<path d="M103.459 207.247L103.766 202.519C103.813 201.809 104.636 201.187 105.319 201.732L109.779 206.029C110.611 206.754 111.894 205.856 111.241 204.567L108.481 199.068C108.208 198.34 108.402 197.835 109.368 197.512L114.065 196.506C115.246 196.212 115.146 195.206 114.487 194.977L100.784 191.041C100.763 191.035 100.745 191.032 100.725 191.032C98.9523 190.947 97.4375 192.297 97.3115 194.067C97.3085 194.099 97.3144 194.132 97.3232 194.161L101.721 207.705C102.049 208.749 103.382 208.732 103.459 207.247Z" fill="#2ECC71"/>
<path opacity="0.48" d="M193.741 147.725C191.162 145.321 188.068 142.58 184.822 139.733C184.819 139.73 184.819 139.728 184.819 139.728C187.939 142.404 191.042 145.133 193.741 147.725Z" fill="#00993E"/>
<path opacity="0.48" d="M159.697 195.332L173.401 191.399C173.421 191.393 173.439 191.391 173.459 191.391C174.406 191.347 175.273 191.719 175.9 192.338L184.195 188.421C184.195 188.421 187.989 188.421 188.988 188.441C188.988 188.441 182.501 193.765 176.131 196.776L172.466 208.063C172.138 209.102 170.805 209.087 170.728 207.602L170.421 202.874C170.374 202.164 169.551 201.542 168.868 202.088L164.408 206.384C163.576 207.109 162.293 206.211 162.946 204.923L165.709 199.423C165.982 198.695 165.789 198.19 164.822 197.867L160.128 196.861C158.938 196.57 159.038 195.561 159.697 195.332Z" fill="#00993E"/>
<path opacity="0.48" d="M192.299 148.13C189.721 145.726 186.627 142.985 183.38 140.138C183.377 140.135 183.377 140.132 183.377 140.132C186.498 142.809 189.601 145.538 192.299 148.13Z" fill="#00993E"/>
<path d="M198.669 154.926C197.866 153.524 195.475 151.085 192.299 148.13C189.598 145.538 186.495 142.809 183.374 140.127C182.985 139.425 182.601 138.759 182.229 138.172C181.863 137.594 181.502 136.978 181.151 136.338C181.156 136.341 181.159 136.344 181.165 136.344C179.05 132.508 177.274 127.777 176.518 124.558V124.555C176.395 124.03 176.301 123.548 176.234 123.114C176.231 123.088 176.228 123.064 176.225 123.038C176.164 122.624 176.131 122.251 176.129 121.943C176.129 121.914 176.134 121.884 176.137 121.855C176.143 121.573 176.181 121.297 176.24 121.03C176.266 120.91 176.298 120.793 176.334 120.675C176.386 120.499 176.454 120.329 176.527 120.159C176.627 119.93 176.741 119.707 176.873 119.49C176.946 119.369 177.013 119.246 177.095 119.129C177.221 118.947 177.362 118.768 177.509 118.592C177.55 118.545 177.588 118.495 177.629 118.448C177.67 118.401 177.714 118.354 177.758 118.31C178.036 118.988 179.012 120.223 180.468 121.873C183.04 124.881 187.274 129.189 194.854 137.485C194.889 137.524 194.924 137.565 194.957 137.603C194.482 140.69 193.981 146.747 198.669 154.926Z" fill="#2ECC71"/>
<path opacity="0.48" d="M198.669 154.926C197.866 153.524 195.475 151.085 192.299 148.13C189.598 145.538 186.495 142.809 183.374 140.127C182.985 139.425 182.601 138.759 182.229 138.172C181.863 137.594 181.502 136.978 181.151 136.338C181.156 136.341 181.159 136.344 181.165 136.344C179.05 132.508 177.274 127.777 176.518 124.558V124.555C176.395 124.03 176.301 123.548 176.234 123.114C176.231 123.088 176.228 123.064 176.225 123.038C176.164 122.624 176.131 122.251 176.129 121.943C176.129 121.914 176.134 121.884 176.137 121.855C176.143 121.573 176.181 121.297 176.24 121.03C176.266 120.91 176.298 120.793 176.334 120.675C176.386 120.499 176.454 120.329 176.527 120.159C176.627 119.93 176.741 119.707 176.873 119.49C176.946 119.369 177.013 119.246 177.095 119.129C177.221 118.947 177.362 118.768 177.509 118.592C177.55 118.545 177.588 118.495 177.629 118.448C177.67 118.401 177.714 118.354 177.758 118.31C178.036 118.988 179.012 120.223 180.468 121.873C183.04 124.881 187.274 129.189 194.854 137.485C194.889 137.524 194.924 137.565 194.957 137.603C194.482 140.69 193.981 146.747 198.669 154.926Z" fill="#00993E"/>
<path d="M172.366 191.223C174.256 191.159 180.963 185.988 187.394 179.423C193.503 173.183 199.366 165.688 200.597 160.077C201.157 157.524 197.471 153.086 192.299 148.127C195.472 151.082 197.866 153.521 198.669 154.924C193.981 146.744 194.482 140.69 194.951 137.6C202.765 146.389 210.187 155.942 209.744 161.377C207.69 175.273 179.571 196.776 172.437 197.815C171.657 197.929 171.276 196.016 171.317 194.223C171.353 192.691 172.366 191.223 172.366 191.223Z" fill="#2ECC71"/>
<path d="M170.318 207.247L170.011 202.519C169.964 201.809 169.14 201.187 168.458 201.732L163.998 206.029C163.166 206.754 161.883 205.856 162.536 204.567L165.296 199.068C165.569 198.34 165.375 197.835 164.408 197.512L159.712 196.506C158.531 196.212 158.631 195.206 159.29 194.977L172.993 191.041C173.014 191.035 173.031 191.032 173.052 191.032C174.825 190.947 176.339 192.297 176.465 194.067C176.468 194.099 176.462 194.132 176.454 194.161L172.056 207.705C171.728 208.749 170.394 208.732 170.318 207.247Z" fill="#2ECC71"/>
<path d="M534.214 247.286C606.221 245.512 624.611 226 624.611 226C624.611 226 612.178 249.414 534.473 250.124C456.768 250.833 428.276 230.08 428.276 230.08C428.276 230.08 462.207 249.06 534.214 247.286Z" fill="#244196"/>
<path d="M535.229 256.159C616.649 254.103 637.443 231.487 637.443 231.487C637.443 231.487 623.385 258.626 535.522 259.448C447.66 260.271 415.443 236.216 415.443 236.216C415.443 236.216 453.81 258.215 535.229 256.159Z" fill="#244196"/>
<path d="M517.566 146.885C457.654 146.885 407.445 161.697 394.134 181.615C393.8 182.116 394.081 182.847 394.629 182.906C394.629 182.906 408.934 188.338 430.75 192.887C431.518 193.048 431.621 194.237 430.865 194.472C430.865 194.472 414.304 199.616 393.519 206.425C392.886 206.633 392.81 207.634 393.413 207.945C416.326 219.722 474.337 237.413 517.566 237.413C587.649 237.413 644.462 217.85 644.462 192.849C644.462 192.183 641.772 189.938 641.693 189.277C641.614 188.617 643.802 187.634 643.644 186.979C638.019 163.839 583.907 146.885 517.566 146.885Z" fill="url(#paint8_radial)"/>
<path opacity="0.23" d="M630.439 185.227C630.439 185.227 624.095 168.605 504.484 186.416C504.487 186.416 606.635 174.292 630.439 185.227Z" fill="#00993E"/>
<path d="M498.914 197.946C499.441 198.709 499.972 200.077 499.884 201.421C499.796 202.771 499.55 203.59 498.307 205.16C497.376 206.337 497.847 206.906 499.33 207.825C500.121 208.315 501.135 209.269 501.818 210.859C502.497 212.441 502.28 213.351 502.113 214.842C501.941 216.409 503.033 216.984 503.766 216.221L521.117 201.26C521.135 201.239 519.274 195.449 519.23 195.446L499.257 195.487C498.477 195.355 497.824 196.37 498.914 197.946Z" fill="#2ECC71"/>
<path opacity="0.48" d="M499.884 201.421C499.819 202.419 499.769 202.381 499.497 203.285L517.279 204.567C517.297 204.547 518.996 203.126 518.955 203.123L499.884 201.421Z" fill="#00993E"/>
<path d="M518.732 195.408C518.803 197.955 518.87 200.503 518.94 203.05C547.561 202.046 571.264 199.757 584.194 193.58C590.134 190.742 589.12 179.202 580.693 179.144C574.701 179.1 540.599 193.597 518.732 195.408Z" fill="#2ECC71"/>
<path d="M536.649 196.3C536.831 196.318 537.022 196.341 537.203 196.356V196.394H537.335C537.341 196.171 537.347 195.948 537.353 195.725H536.854C536.849 195.722 536.77 195.948 536.649 196.3Z" fill="url(#paint9_radial)"/>
<path d="M556.827 195.763L537.352 195.725V195.687C515.485 193.876 481.383 179.378 475.388 179.419C471.134 179.449 468.775 182.41 468.242 185.694C468.974 182.689 471.277 180.118 475.239 180.089C481.184 180.047 514.764 194.299 536.649 196.3C536.83 196.318 537.021 196.341 537.202 196.356V196.394H537.334L556.675 196.432C557.17 196.35 557.61 196.728 557.592 197.415C557.999 196.318 557.463 195.657 556.827 195.763Z" fill="url(#paint10_radial)"/>
<path d="M557.628 206.108C556.386 204.538 556.14 203.719 556.052 202.369C556.008 201.694 556.119 201.013 556.31 200.406C556.477 199.534 556.819 198.736 557.174 198.222C557.376 197.929 557.502 197.665 557.596 197.412C557.614 196.726 557.174 196.35 556.679 196.429L537.338 196.391H537.206V196.353C537.024 196.338 536.837 196.315 536.652 196.297C514.768 194.293 481.187 180.042 475.242 180.086C471.281 180.115 468.978 182.686 468.246 185.691C467.419 189.078 468.594 193.019 471.741 194.522C484.657 200.693 508.319 202.982 536.89 203.986L552.17 217.16C552.826 217.847 553.769 217.442 553.828 216.218C553.834 216.08 553.84 215.939 553.822 215.781C553.684 214.542 553.541 213.688 553.875 212.532C553.942 212.297 554.001 212.068 554.118 211.798C554.801 210.208 555.814 209.254 556.606 208.764C557.654 208.115 558.182 207.637 558.082 207C558.038 206.742 557.901 206.454 557.628 206.108Z" fill="#2ECC71"/>
<path d="M572.196 129.001C568.888 123.797 566.096 115.692 566.096 112.781C566.096 108.687 571.815 106.183 575.249 103.178C563.67 110.77 544.291 113.919 526.846 113.919C509.4 113.919 490.021 110.77 478.442 103.178C481.876 106.183 487.595 108.687 487.595 112.781C487.595 115.692 484.8 123.797 481.492 129.001C477.648 135.049 472.62 147.871 472.62 155.123C472.62 179.446 496.511 192.147 526.843 192.147C557.174 192.147 581.065 179.446 581.065 155.123C581.068 147.874 576.04 135.052 572.196 129.001Z" fill="url(#paint11_radial)"/>
<path opacity="0.26" d="M557.898 127.78C555.633 123.771 553.72 117.529 553.72 115.287C553.72 112.135 557.637 110.204 559.987 107.891C552.058 113.74 538.788 116.164 526.843 116.164C514.897 116.164 501.627 113.74 493.699 107.891C496.048 110.204 499.966 112.135 499.966 115.287C499.966 117.529 498.053 123.771 495.788 127.78C493.154 132.44 489.714 142.316 489.714 147.9C489.714 166.636 506.072 176.42 526.843 176.42C547.613 176.42 563.972 166.636 563.972 147.9C563.975 142.316 560.532 132.44 557.898 127.78Z" fill="#3BE07E"/>
<path opacity="0.3" d="M571.133 127.172C568.311 122.06 566.093 115.351 566.093 112.76C566.093 109.852 568.982 107.745 571.889 105.69C559.483 112.255 543.851 116.164 526.843 116.164C509.834 116.164 494.205 112.252 481.797 105.687C484.703 107.742 487.592 109.849 487.592 112.76C487.592 115.354 485.374 122.06 482.553 127.175C494.838 120.854 510.183 117.297 526.84 117.297C543.503 117.297 558.85 120.854 571.133 127.172Z" fill="#1AAA54"/>
<path d="M526.846 17.977C486.535 17.977 453.856 39.9669 453.856 67.0897C453.856 79.4537 460.66 90.7407 471.867 99.3747C472.017 99.4891 472.16 99.6036 472.31 99.718C473.61 100.461 474.826 101.303 475.919 102.257C489.072 110.882 507.033 116.202 526.849 116.202C546.664 116.202 564.625 110.882 577.778 102.257C578.871 101.303 580.087 100.461 581.388 99.718C581.537 99.6036 581.681 99.4891 581.83 99.3747C593.037 90.7407 599.841 79.4537 599.841 67.0897C599.835 39.964 567.157 17.977 526.846 17.977Z" fill="#2ECC71"/>
<path d="M584.476 37.0674C583.641 36.3425 582.785 35.6323 581.891 34.9427C581.062 36.3279 580.095 37.5986 578.985 38.7226C573.992 43.7938 566.471 46.0624 559.143 43.9904C552.48 42.1063 547.555 37.0791 545.504 30.969C545.853 38.5759 552.978 44.2047 560.289 46.2296C567.391 48.1959 577.707 46.3822 582.34 41.2083C592.343 49.1086 598.724 59.254 599.691 70.4177C599.776 69.4434 599.832 68.4631 599.832 67.4741C599.835 55.9729 594.08 45.4108 584.476 37.0674Z" fill="#27C165"/>
<path d="M586.152 72.0582C572.158 104.531 486.573 106.606 467.537 71.1044C467.537 71.1044 489.019 58.1505 527.713 58.1505C564.355 58.1505 586.152 72.0582 586.152 72.0582Z" fill="url(#paint12_linear)"/>
<path d="M469.213 37.0674C470.048 36.3425 470.903 35.6323 471.797 34.9427C472.626 36.3279 473.593 37.5986 474.703 38.7226C479.696 43.7938 487.217 46.0624 494.545 43.9904C501.208 42.1063 506.133 37.0791 508.184 30.969C507.836 38.5759 500.71 44.2047 493.4 46.2296C486.297 48.1959 475.981 46.3822 471.348 41.2083C461.345 49.1086 454.964 59.254 453.997 70.4177C453.912 69.4434 453.856 68.4631 453.856 67.4741C453.853 55.9729 459.608 45.4108 469.213 37.0674Z" fill="#27C165"/>
<path d="M526.843 23.3241C533.025 23.3241 539.017 23.8582 544.748 24.8325C544.757 23.0981 544.968 21.3402 545.445 19.5911C539.506 18.5404 533.271 17.977 526.843 17.977C520.411 17.977 514.179 18.5404 508.24 19.5911C508.718 21.3402 508.929 23.0981 508.937 24.8325C514.671 23.8582 520.663 23.3241 526.843 23.3241Z" fill="#27C165"/>
<path d="M584.296 30.4204C587.32 19.6854 581.084 8.52707 570.366 5.49753C559.649 2.468 548.508 8.71452 545.484 19.4495C542.459 30.1845 548.695 41.3429 559.413 44.3724C570.131 47.4019 581.271 41.1554 584.296 30.4204Z" fill="#00993E"/>
<path d="M583.066 29.2993C585.979 18.9606 579.973 8.21402 569.651 5.2963C559.329 2.37858 548.6 8.39456 545.687 18.7333C542.774 29.0721 548.78 39.8186 559.102 42.7363C569.424 45.6541 580.153 39.6381 583.066 29.2993Z" fill="#2ECC71"/>
<path d="M564.373 40.1049C573.249 40.1049 580.444 32.898 580.444 24.0079C580.444 15.1177 573.249 7.91086 564.373 7.91086C555.497 7.91086 548.302 15.1177 548.302 24.0079C548.302 32.898 555.497 40.1049 564.373 40.1049Z" fill="url(#paint13_radial)"/>
<path d="M564.372 19.5236C560.062 19.5236 556.569 22.8809 556.268 27.1216L560.95 28.3483L556.833 30.8282C558.061 33.7893 560.97 35.873 564.369 35.873C568.875 35.873 572.529 32.2134 572.529 27.6998C572.535 23.1832 568.881 19.5236 564.372 19.5236Z" fill="#2A5351"/>
<path d="M556.272 27.1245C556.257 27.3182 556.213 27.5031 556.213 27.6997C556.213 28.8091 556.439 29.8656 556.837 30.8282L560.954 28.3483L556.272 27.1245Z" fill="white"/>
<path d="M494.27 44.3603C504.987 41.3308 511.224 30.1724 508.199 19.4374C505.175 8.70242 494.034 2.45592 483.317 5.48546C472.599 8.51499 466.362 19.6733 469.387 30.4083C472.412 41.1433 483.552 47.3898 494.27 44.3603Z" fill="#00993E"/>
<path d="M494.584 42.7239C504.906 39.8062 510.912 29.0597 507.999 18.7209C505.086 8.38212 494.357 2.36616 484.035 5.28388C473.713 8.2016 467.706 18.9481 470.619 29.2869C473.532 39.6257 484.262 45.6416 494.584 42.7239Z" fill="#2ECC71"/>
<path d="M489.315 40.1048C498.191 40.1048 505.386 32.898 505.386 24.0079C505.386 15.1177 498.191 7.91086 489.315 7.91086C480.439 7.91086 473.244 15.1177 473.244 24.0079C473.244 32.898 480.439 40.1048 489.315 40.1048Z" fill="url(#paint14_radial)"/>
<path d="M489.314 19.5236C485.004 19.5236 481.512 22.8809 481.21 27.1216L485.892 28.3483L481.775 30.8282C483.003 33.7893 485.912 35.873 489.311 35.873C493.818 35.873 497.471 32.2134 497.471 27.6998C497.474 23.1832 493.82 19.5236 489.314 19.5236Z" fill="#2A5351"/>
<path d="M481.211 27.1245C481.196 27.3182 481.152 27.5031 481.152 27.6997C481.152 28.8091 481.378 29.8656 481.776 30.8282L485.893 28.3483L481.211 27.1245Z" fill="white"/>
<path d="M467.566 72.202C467.563 72.2049 467.537 72.2225 467.537 72.2225C486.573 117.664 572.158 115.011 586.152 73.4434C586.152 73.4434 586.093 73.3964 586.078 73.3876C564.889 106.791 494.361 105.464 467.566 72.202Z" fill="url(#paint15_linear)"/>
<path d="M586.152 72.0582C572.158 104.531 486.573 106.606 467.537 71.1044" stroke="#00993E" stroke-miterlimit="10"/>
<path d="M521.264 41.2406C522.159 41.2406 522.884 40.7702 522.884 40.19C522.884 39.6097 522.159 39.1393 521.264 39.1393C520.369 39.1393 519.644 39.6097 519.644 40.19C519.644 40.7702 520.369 41.2406 521.264 41.2406Z" fill="#44A85F"/>
<path d="M532.424 41.2406C533.319 41.2406 534.045 40.7702 534.045 40.19C534.045 39.6097 533.319 39.1393 532.424 39.1393C531.53 39.1393 530.804 39.6097 530.804 40.19C530.804 40.7702 531.53 41.2406 532.424 41.2406Z" fill="#44A85F"/>
<path d="M589.997 74.0552C590.313 73.4075 588.862 72.0443 586.755 71.0104C584.647 69.9766 582.682 69.6636 582.366 70.3114C582.049 70.9591 583.5 72.3223 585.607 73.3562C587.715 74.39 589.68 74.703 589.997 74.0552Z" fill="#00993E"/>
<path d="M468.135 72.2618C470.242 71.228 471.694 69.8648 471.377 69.217C471.06 68.5692 469.095 68.8822 466.988 69.9161C464.881 70.9499 463.429 72.3131 463.746 72.9609C464.063 73.6086 466.028 73.2957 468.135 72.2618Z" fill="#00993E"/>
<path opacity="0.17" d="M576.284 57.276C578.622 57.276 580.517 55.3773 580.517 53.0353C580.517 50.6932 578.622 48.7946 576.284 48.7946C573.945 48.7946 572.05 50.6932 572.05 53.0353C572.05 55.3773 573.945 57.276 576.284 57.276Z" fill="#006D2C"/>
<path opacity="0.17" d="M591.262 52.3164C593.186 51.6513 594.208 49.5496 593.544 47.6221C592.88 45.6947 590.781 44.6714 588.857 45.3365C586.933 46.0016 585.911 48.1033 586.575 50.0307C587.239 51.9582 589.337 52.9815 591.262 52.3164Z" fill="#006D2C"/>
<path opacity="0.17" d="M591.103 63.5518C592.539 63.0553 593.302 61.4866 592.806 60.0479C592.31 58.6092 590.744 57.8454 589.308 58.3418C587.871 58.8383 587.109 60.407 587.604 61.8457C588.1 63.2844 589.666 64.0482 591.103 63.5518Z" fill="#006D2C"/>
<path opacity="0.17" d="M477.765 56.5658C480.104 56.5658 481.999 54.6671 481.999 52.3251C481.999 49.983 480.104 48.0844 477.765 48.0844C475.427 48.0844 473.531 49.983 473.531 52.3251C473.531 54.6671 475.427 56.5658 477.765 56.5658Z" fill="#006D2C"/>
<path opacity="0.17" d="M467.455 49.273C468.119 47.3456 467.097 45.2439 465.173 44.5788C463.248 43.9137 461.15 44.937 460.486 46.8645C459.822 48.7919 460.844 50.8936 462.768 51.5587C464.692 52.2238 466.791 51.2005 467.455 49.273Z" fill="#006D2C"/>
<path opacity="0.17" d="M466.425 61.0892C466.921 59.6505 466.158 58.0818 464.722 57.5853C463.286 57.0889 461.719 57.8527 461.224 59.2914C460.728 60.73 461.491 62.2988 462.927 62.7953C464.364 63.2917 465.93 62.5279 466.425 61.0892Z" fill="#006D2C"/>
<path opacity="0.17" d="M528.709 28.3696C529.388 27.2919 529.065 25.8675 527.989 25.1883C526.913 24.509 525.491 24.832 524.813 25.9098C524.135 26.9875 524.457 28.4119 525.533 29.0912C526.609 29.7704 528.031 29.4474 528.709 28.3696Z" fill="#006D2C"/>
<path opacity="0.17" d="M518.82 23.1274C521.208 23.1274 523.145 21.1876 523.145 18.7958C523.145 18.5141 523.113 18.2411 523.063 17.9741C520.165 18.0709 517.317 18.291 514.516 18.6109C514.513 18.6725 514.499 18.7342 514.499 18.7958C514.496 21.1905 516.432 23.1274 518.82 23.1274Z" fill="#006D2C"/>
<path opacity="0.17" d="M534.651 23.1274C537.039 23.1274 538.976 21.1876 538.976 18.7958C538.976 18.7312 538.961 18.6725 538.958 18.6109C536.157 18.2939 533.309 18.0709 530.411 17.9741C530.359 18.2411 530.329 18.5141 530.329 18.7958C530.326 21.1905 532.263 23.1274 534.651 23.1274Z" fill="#006D2C"/>
<path d="M556.31 200.406C556.497 199.804 556.761 199.273 557.025 198.891C557.426 198.313 557.587 197.811 557.596 197.412C557.502 197.662 557.379 197.929 557.174 198.222C556.817 198.739 556.477 199.534 556.31 200.406Z" fill="#2ECC71"/>
<path opacity="0.48" d="M470.106 138.726C472.685 136.323 475.779 133.582 479.025 130.735C479.025 130.735 479.028 130.729 479.031 130.726C475.91 133.406 472.808 136.135 470.106 138.726Z" fill="#00993E"/>
<path opacity="0.48" d="M504.153 186.334L490.449 182.401C490.429 182.395 490.411 182.392 490.391 182.392C489.444 182.348 488.577 182.721 487.95 183.34L479.655 179.422C479.655 179.422 475.861 179.422 474.862 179.443C474.862 179.443 481.349 184.767 487.718 187.778L491.384 199.065C491.712 200.103 493.045 200.089 493.121 198.604L493.429 193.876C493.476 193.166 494.299 192.544 494.982 193.089L499.441 197.386C500.273 198.111 501.557 197.213 500.903 195.924L498.14 190.425C497.868 189.697 498.061 189.192 499.028 188.869L503.722 187.863C504.912 187.572 504.809 186.563 504.153 186.334Z" fill="#00993E"/>
<path opacity="0.48" d="M471.548 139.132C474.126 136.728 477.22 133.987 480.467 131.14C480.467 131.14 480.47 131.134 480.473 131.131C477.352 133.811 474.249 136.54 471.548 139.132Z" fill="#00993E"/>
<path d="M465.181 145.928C465.984 144.526 468.375 142.087 471.551 139.131C474.252 136.54 477.355 133.811 480.475 131.128C480.865 130.427 481.249 129.761 481.621 129.174C481.987 128.596 482.348 127.98 482.699 127.34C482.693 127.343 482.691 127.346 482.685 127.346C484.8 123.51 486.576 118.779 487.332 115.56V115.557C487.455 115.031 487.548 114.55 487.616 114.116C487.619 114.089 487.622 114.066 487.625 114.04C487.686 113.626 487.718 113.253 487.721 112.945C487.721 112.916 487.715 112.886 487.713 112.857C487.707 112.575 487.669 112.299 487.61 112.032C487.584 111.912 487.551 111.794 487.516 111.677C487.463 111.501 487.396 111.331 487.323 111.161C487.223 110.932 487.109 110.709 486.977 110.491C486.904 110.371 486.836 110.248 486.754 110.13C486.628 109.949 486.488 109.77 486.341 109.593C486.3 109.546 486.262 109.497 486.221 109.45C486.18 109.403 486.136 109.356 486.092 109.312C485.814 109.99 484.838 111.225 483.382 112.874C480.809 115.883 476.576 120.191 468.996 128.487C468.961 128.525 468.925 128.566 468.893 128.605C469.368 131.692 469.866 137.749 465.181 145.928Z" fill="#2ECC71"/>
<path opacity="0.48" d="M465.181 145.928C465.984 144.526 468.375 142.087 471.551 139.131C474.252 136.54 477.355 133.811 480.475 131.128C480.865 130.427 481.249 129.761 481.621 129.174C481.987 128.596 482.348 127.98 482.699 127.34C482.693 127.343 482.691 127.346 482.685 127.346C484.8 123.51 486.576 118.779 487.332 115.56V115.557C487.455 115.031 487.548 114.55 487.616 114.116C487.619 114.089 487.622 114.066 487.625 114.04C487.686 113.626 487.718 113.253 487.721 112.945C487.721 112.916 487.715 112.886 487.713 112.857C487.707 112.575 487.669 112.299 487.61 112.032C487.584 111.912 487.551 111.794 487.516 111.677C487.463 111.501 487.396 111.331 487.323 111.161C487.223 110.932 487.109 110.709 486.977 110.491C486.904 110.371 486.836 110.248 486.754 110.13C486.628 109.949 486.488 109.77 486.341 109.593C486.3 109.546 486.262 109.497 486.221 109.45C486.18 109.403 486.136 109.356 486.092 109.312C485.814 109.99 484.838 111.225 483.382 112.874C480.809 115.883 476.576 120.191 468.996 128.487C468.961 128.525 468.925 128.566 468.893 128.605C469.368 131.692 469.866 137.749 465.181 145.928Z" fill="#00993E"/>
<path d="M491.481 182.225C489.591 182.16 482.884 176.989 476.453 170.424C470.344 164.185 464.481 156.69 463.25 151.079C462.69 148.526 466.376 144.088 471.548 139.129C468.375 142.084 465.981 144.523 465.178 145.925C469.866 137.746 469.365 131.692 468.896 128.602C461.082 137.391 453.66 146.944 454.103 152.379C456.156 166.275 484.276 187.778 491.41 188.816C492.19 188.931 492.571 187.017 492.53 185.224C492.494 183.692 491.481 182.225 491.481 182.225Z" fill="#2ECC71"/>
<path d="M493.532 198.249L493.839 193.521C493.886 192.811 494.709 192.188 495.392 192.734L499.852 197.031C500.684 197.756 501.967 196.858 501.314 195.569L498.554 190.07C498.281 189.342 498.474 188.837 499.441 188.514L504.138 187.508C505.319 187.214 505.219 186.208 504.56 185.979L490.856 182.043C490.836 182.037 490.818 182.034 490.798 182.034C489.025 181.949 487.51 183.299 487.384 185.069C487.381 185.101 487.387 185.133 487.396 185.163L491.794 198.707C492.122 199.751 493.455 199.734 493.532 198.249Z" fill="#2ECC71"/>
<path opacity="0.48" d="M583.814 138.726C581.235 136.323 578.141 133.582 574.895 130.735C574.895 130.735 574.892 130.729 574.889 130.726C578.009 133.406 581.112 136.135 583.814 138.726Z" fill="#00993E"/>
<path opacity="0.48" d="M549.767 186.334L563.471 182.401C563.491 182.395 563.509 182.392 563.529 182.392C564.476 182.348 565.343 182.721 565.97 183.34L574.265 179.422C574.265 179.422 578.059 179.422 579.058 179.443C579.058 179.443 572.571 184.767 566.201 187.778L562.536 199.065C562.208 200.103 560.875 200.089 560.798 198.604L560.491 193.876C560.444 193.166 559.621 192.544 558.938 193.089L554.478 197.386C553.646 198.111 552.363 197.213 553.016 195.924L555.779 190.425C556.052 189.697 555.858 189.192 554.892 188.869L550.198 187.863C549.008 187.572 549.111 186.563 549.767 186.334Z" fill="#00993E"/>
<path opacity="0.48" d="M582.372 139.132C579.794 136.728 576.7 133.987 573.453 131.14C573.453 131.14 573.45 131.134 573.447 131.131C576.568 133.811 579.671 136.54 582.372 139.132Z" fill="#00993E"/>
<path d="M588.742 145.928C587.939 144.526 585.548 142.087 582.372 139.131C579.671 136.54 576.568 133.811 573.447 131.128C573.058 130.427 572.674 129.761 572.302 129.174C571.935 128.596 571.575 127.98 571.223 127.34C571.229 127.343 571.232 127.346 571.238 127.346C569.123 123.51 567.347 118.779 566.591 115.56V115.557C566.468 115.031 566.374 114.55 566.307 114.116C566.304 114.089 566.301 114.066 566.298 114.04C566.237 113.626 566.204 113.253 566.201 112.945C566.201 112.916 566.207 112.886 566.21 112.857C566.216 112.575 566.254 112.299 566.313 112.032C566.339 111.912 566.371 111.794 566.406 111.677C566.459 111.501 566.527 111.331 566.6 111.161C566.7 110.932 566.814 110.709 566.946 110.491C567.019 110.371 567.086 110.248 567.168 110.13C567.294 109.949 567.435 109.77 567.581 109.593C567.622 109.546 567.661 109.497 567.702 109.45C567.743 109.403 567.787 109.356 567.83 109.312C568.109 109.99 569.085 111.225 570.541 112.874C573.113 115.883 577.347 120.191 584.927 128.487C584.962 128.525 584.997 128.566 585.03 128.605C584.552 131.692 584.054 137.749 588.742 145.928Z" fill="#2ECC71"/>
<path opacity="0.48" d="M588.742 145.928C587.939 144.526 585.548 142.087 582.372 139.131C579.671 136.54 576.568 133.811 573.447 131.128C573.058 130.427 572.674 129.761 572.302 129.174C571.935 128.596 571.575 127.98 571.223 127.34C571.229 127.343 571.232 127.346 571.238 127.346C569.123 123.51 567.347 118.779 566.591 115.56V115.557C566.468 115.031 566.374 114.55 566.307 114.116C566.304 114.089 566.301 114.066 566.298 114.04C566.237 113.626 566.204 113.253 566.201 112.945C566.201 112.916 566.207 112.886 566.21 112.857C566.216 112.575 566.254 112.299 566.313 112.032C566.339 111.912 566.371 111.794 566.406 111.677C566.459 111.501 566.527 111.331 566.6 111.161C566.7 110.932 566.814 110.709 566.946 110.491C567.019 110.371 567.086 110.248 567.168 110.13C567.294 109.949 567.435 109.77 567.581 109.593C567.622 109.546 567.661 109.497 567.702 109.45C567.743 109.403 567.787 109.356 567.83 109.312C568.109 109.99 569.085 111.225 570.541 112.874C573.113 115.883 577.347 120.191 584.927 128.487C584.962 128.525 584.997 128.566 585.03 128.605C584.552 131.692 584.054 137.749 588.742 145.928Z" fill="#00993E"/>
<path d="M562.439 182.225C564.329 182.16 571.036 176.989 577.467 170.424C583.576 164.185 589.439 156.69 590.67 151.079C591.229 148.526 587.544 144.088 582.372 139.129C585.545 142.084 587.939 144.523 588.742 145.925C584.054 137.746 584.555 131.692 585.024 128.602C592.838 137.391 600.26 146.944 599.817 152.379C597.763 166.275 569.644 187.778 562.51 188.816C561.73 188.931 561.349 187.017 561.39 185.224C561.426 183.692 562.439 182.225 562.439 182.225Z" fill="#2ECC71"/>
<path d="M560.391 198.249L560.084 193.521C560.037 192.811 559.213 192.188 558.531 192.734L554.071 197.031C553.239 197.756 551.956 196.858 552.609 195.569L555.369 190.07C555.642 189.342 555.448 188.837 554.481 188.514L549.785 187.508C548.604 187.214 548.703 186.208 549.363 185.979L563.066 182.043C563.087 182.037 563.104 182.034 563.125 182.034C564.898 181.949 566.412 183.299 566.538 185.069C566.541 185.101 566.535 185.133 566.527 185.163L562.129 198.707C561.798 199.751 560.467 199.734 560.391 198.249Z" fill="#2ECC71"/>
<path d="M328.111 460.031C440.338 456.798 469 421.236 469 421.236C469 421.236 449.623 463.91 328.515 465.204C207.406 466.497 163 428.672 163 428.672C163 428.672 215.884 463.264 328.111 460.031Z" fill="#244196"/>
<path d="M329.694 476.203C456.591 472.456 489 431.236 489 431.236C489 431.236 467.09 480.7 330.15 482.199C193.211 483.697 143 439.855 143 439.855C143 439.855 202.797 479.95 329.694 476.203Z" fill="#244196"/>
<path d="M331.119 492.902C471.219 488.346 507 438.236 507 438.236C507 438.236 482.81 498.368 331.623 500.19C180.435 502.013 125 448.714 125 448.714C125 448.714 191.018 497.457 331.119 492.902Z" fill="#244196"/>
<path d="M306.393 313.586C220.09 313.586 147.766 334.922 128.592 363.615C128.109 364.337 128.519 365.387 129.304 365.475C129.304 365.475 149.911 373.299 181.338 379.855C182.445 380.087 182.589 381.801 181.505 382.142C181.505 382.142 157.652 389.552 127.71 399.36C126.799 399.659 126.687 401.103 127.558 401.549C160.561 418.512 244.128 443.994 306.396 443.994C407.349 443.994 489.187 415.812 489.187 379.803C489.187 378.84 485.314 375.609 485.199 374.658C485.085 373.707 488.238 372.29 488.009 371.351C479.902 338.009 401.955 313.586 306.393 313.586Z" fill="url(#paint16_radial)"/>
<path opacity="0.23" d="M468.985 368.818C468.985 368.818 459.846 344.873 287.55 370.529C287.55 370.529 434.698 353.064 468.985 368.818Z" fill="#00993E"/>
<path d="M279.525 387.139C280.287 388.24 281.049 390.209 280.923 392.146C280.797 394.092 280.442 395.269 278.652 397.531C277.31 399.228 277.99 400.046 280.126 401.367C281.265 402.071 282.725 403.445 283.709 405.737C284.688 408.017 284.374 409.326 284.137 411.471C283.885 413.728 285.461 414.559 286.516 413.458L311.512 391.908C311.535 391.876 308.854 383.539 308.796 383.533L280.026 383.591C278.895 383.409 277.955 384.871 279.525 387.139Z" fill="#2ECC71"/>
<path opacity="0.48" d="M280.923 392.146C280.829 393.581 280.756 393.528 280.363 394.828L305.977 396.677C306.001 396.645 308.453 394.602 308.391 394.597L280.923 392.146Z" fill="#00993E"/>
<path d="M308.072 383.483C308.172 387.151 308.268 390.82 308.374 394.488C349.599 393.041 383.745 389.745 402.371 380.847C410.93 376.759 409.465 360.137 397.329 360.052C388.697 359.987 339.57 380.871 308.072 383.483Z" fill="#2ECC71"/>
<path d="M333.885 384.768C334.149 384.792 334.422 384.827 334.682 384.847C334.682 384.847 334.682 384.883 334.682 384.903H334.873C334.882 384.58 334.89 384.26 334.899 383.938H334.181C334.167 383.935 334.055 384.258 333.885 384.768Z" fill="url(#paint17_radial)"/>
<path d="M362.951 383.993L334.899 383.938V383.882C303.402 381.273 254.277 360.389 245.643 360.451C239.513 360.495 236.117 364.756 235.346 369.49C236.401 365.161 239.718 361.458 245.423 361.417C253.984 361.355 302.359 381.883 333.882 384.771C334.146 384.795 334.419 384.83 334.679 384.85C334.679 384.85 334.679 384.886 334.679 384.906H334.87L362.731 384.962C363.443 384.844 364.076 385.39 364.053 386.376C364.636 384.795 363.868 383.844 362.951 383.993Z" fill="url(#paint18_radial)"/>
<path d="M364.1 398.896C362.309 396.633 361.955 395.456 361.829 393.511C361.767 392.536 361.928 391.556 362.198 390.685C362.441 389.429 362.93 388.281 363.446 387.539C363.739 387.116 363.918 386.734 364.053 386.373C364.076 385.387 363.443 384.842 362.731 384.959L334.87 384.903H334.679C334.679 384.886 334.679 384.868 334.679 384.868C334.419 384.827 334.146 384.795 333.882 384.771C302.362 381.886 253.984 361.358 245.423 361.417C239.718 361.458 236.401 365.161 235.347 369.49C234.157 374.37 235.848 380.046 240.38 382.212C258.983 391.101 293.07 394.397 334.225 395.847L356.238 414.826C357.185 415.812 358.541 415.231 358.626 413.47C358.635 413.27 358.641 413.068 358.615 412.839C358.415 411.057 358.21 409.822 358.694 408.161C358.793 407.82 358.875 407.492 359.042 407.104C360.027 404.812 361.486 403.439 362.626 402.735C364.135 401.798 364.899 401.112 364.753 400.193C364.694 399.809 364.492 399.392 364.1 398.896Z" fill="#2ECC71"/>
<path d="M385.084 287.825C380.32 280.33 376.294 268.656 376.294 264.459C376.294 258.563 384.533 254.953 389.479 250.627C372.799 261.565 344.885 266.099 319.757 266.099C294.629 266.099 266.712 261.565 250.035 250.627C254.98 254.953 263.22 258.563 263.22 264.459C263.22 268.653 259.194 280.327 254.43 287.825C248.892 296.538 241.649 315.01 241.649 325.454C241.649 360.492 276.062 378.787 319.757 378.787C363.452 378.787 397.865 360.489 397.865 325.454C397.865 315.01 390.625 296.538 385.084 287.825Z" fill="url(#paint19_radial)"/>
<path opacity="0.26" d="M364.492 286.067C361.231 280.295 358.474 271.303 358.474 268.072C358.474 263.529 364.117 260.752 367.501 257.418C356.08 265.844 336.965 269.336 319.757 269.336C302.549 269.336 283.434 265.844 272.013 257.418C275.4 260.752 281.04 263.531 281.04 268.072C281.04 271.303 278.283 280.295 275.022 286.067C271.23 292.779 266.27 307.007 266.27 315.051C266.27 342.038 289.836 356.131 319.754 356.131C349.672 356.131 373.238 342.038 373.238 315.051C373.244 307.007 368.284 292.779 364.492 286.067Z" fill="#3BE07E"/>
<path opacity="0.3" d="M383.555 285.193C379.491 277.827 376.297 268.165 376.297 264.43C376.297 260.239 380.461 257.204 384.645 254.243C366.772 263.699 344.258 269.333 319.757 269.333C295.256 269.333 272.742 263.699 254.869 254.243C259.053 257.201 263.22 260.239 263.22 264.43C263.22 268.165 260.026 277.827 255.962 285.193C273.656 276.086 295.763 270.962 319.76 270.962C343.754 270.962 365.86 276.086 383.555 285.193Z" fill="#1AAA54"/>
<path d="M319.76 127.894C261.693 127.894 214.617 159.569 214.617 198.642C214.617 216.45 224.418 232.711 240.562 245.145C240.776 245.31 240.984 245.477 241.198 245.641C243.073 246.713 244.825 247.925 246.396 249.298C265.341 261.721 291.213 269.386 319.757 269.386C348.301 269.386 374.173 261.721 393.118 249.298C394.692 247.922 396.444 246.71 398.316 245.641C398.533 245.477 398.741 245.31 398.952 245.145C415.096 232.708 424.897 216.45 424.897 198.642C424.9 159.569 377.827 127.894 319.76 127.894Z" fill="#2ECC71"/>
<path d="M402.776 155.395C401.574 154.351 400.338 153.326 399.054 152.335C397.859 154.327 396.464 156.161 394.87 157.781C387.677 165.086 376.842 168.352 366.288 165.368C356.69 162.656 349.593 155.413 346.64 146.612C347.141 157.57 357.405 165.679 367.938 168.593C378.169 171.425 393.03 168.816 399.702 161.359C414.112 172.737 423.306 187.355 424.695 203.434C424.815 202.031 424.897 200.62 424.897 199.196C424.9 182.63 416.611 167.413 402.776 155.395Z" fill="#27C165"/>
<path d="M405.187 205.799C385.029 252.576 261.746 255.564 234.327 204.426C234.327 204.426 265.271 185.767 321.011 185.767C373.792 185.764 405.187 205.799 405.187 205.799Z" fill="url(#paint20_linear)"/>
<path d="M236.741 155.395C237.943 154.351 239.179 153.326 240.462 152.335C241.658 154.327 243.052 156.161 244.646 157.781C251.839 165.086 262.675 168.352 273.228 165.368C282.827 162.656 289.924 155.413 292.877 146.612C292.376 157.57 282.112 165.679 271.579 168.593C261.347 171.425 246.486 168.816 239.815 161.359C225.405 172.737 216.211 187.355 214.822 203.434C214.702 202.031 214.62 200.62 214.62 199.196C214.617 182.63 222.906 167.413 236.741 155.395Z" fill="#27C165"/>
<path d="M319.757 135.601C328.661 135.601 337.293 136.37 345.55 137.772C345.564 135.275 345.866 132.742 346.558 130.221C338.002 128.707 329.022 127.894 319.76 127.894C310.498 127.894 301.518 128.707 292.962 130.221C293.654 132.742 293.955 135.275 293.97 137.772C302.224 136.37 310.853 135.601 319.757 135.601Z" fill="#27C165"/>
<path d="M402.515 145.818C406.872 130.353 397.888 114.279 382.449 109.915C367.009 105.551 350.961 114.549 346.603 130.014C342.246 145.478 351.23 161.552 366.67 165.917C382.109 170.281 398.158 161.282 402.515 145.818Z" fill="#00993E"/>
<path d="M400.741 144.2C404.937 129.308 396.286 113.829 381.418 109.626C366.55 105.424 351.095 114.089 346.899 128.981C342.704 143.873 351.355 159.352 366.223 163.555C381.091 167.758 396.545 159.092 400.741 144.2Z" fill="#2ECC71"/>
<path d="M373.818 159.771C386.604 159.771 396.968 149.39 396.968 136.584C396.968 123.778 386.604 113.397 373.818 113.397C361.033 113.397 350.668 123.778 350.668 136.584C350.668 149.39 361.033 159.771 373.818 159.771Z" fill="url(#paint21_radial)"/>
<path d="M373.818 130.125C367.609 130.125 362.579 134.961 362.145 141.071L368.89 142.835L362.959 146.406C364.726 150.671 368.919 153.676 373.815 153.676C380.308 153.676 385.57 148.405 385.57 141.902C385.576 135.398 380.311 130.125 373.818 130.125Z" fill="#2A5351"/>
<path d="M362.148 141.071C362.128 141.35 362.063 141.617 362.063 141.902C362.063 143.498 362.388 145.018 362.963 146.409L368.893 142.838L362.148 141.071Z" fill="white"/>
<path d="M272.843 165.904C288.282 161.54 297.266 145.465 292.909 130.001C288.552 114.536 272.503 105.538 257.064 109.902C241.624 114.266 232.64 130.341 236.997 145.805C241.355 161.27 257.403 170.268 272.843 165.904Z" fill="#00993E"/>
<path d="M273.29 163.545C288.158 159.342 296.809 143.863 292.613 128.971C288.417 114.079 272.963 105.413 258.095 109.616C243.227 113.818 234.575 129.298 238.771 144.19C242.967 159.082 258.422 167.747 273.29 163.545Z" fill="#2ECC71"/>
<path d="M265.695 159.771C278.481 159.771 288.845 149.39 288.845 136.584C288.845 123.778 278.481 113.397 265.695 113.397C252.91 113.397 242.546 123.778 242.546 136.584C242.546 149.39 252.91 159.771 265.695 159.771Z" fill="url(#paint22_radial)"/>
<path d="M265.695 130.125C259.487 130.125 254.456 134.961 254.022 141.071L260.767 142.835L254.837 146.406C256.603 150.671 260.796 153.676 265.692 153.676C272.185 153.676 277.447 148.405 277.447 141.902C277.453 135.398 272.188 130.125 265.695 130.125Z" fill="#2A5351"/>
<path d="M254.025 141.071C254.005 141.35 253.943 141.617 253.943 141.902C253.943 143.498 254.268 145.018 254.843 146.409L260.773 142.838L254.025 141.071Z" fill="white"/>
<path d="M234.368 206.008C234.365 206.011 234.327 206.037 234.327 206.037C261.749 271.496 385.031 267.672 405.187 207.795C405.187 207.795 405.102 207.731 405.084 207.713C374.56 255.831 272.965 253.92 234.368 206.008Z" fill="url(#paint23_linear)"/>
<path d="M405.19 205.799C385.031 252.576 261.749 255.564 234.33 204.426" stroke="#00993E" stroke-miterlimit="10"/>
<path d="M311.72 161.403C313.008 161.403 314.052 160.726 314.052 159.892C314.052 159.057 313.008 158.38 311.72 158.38C310.432 158.38 309.388 159.057 309.388 159.892C309.388 160.726 310.432 161.403 311.72 161.403Z" fill="#44A85F"/>
<path d="M327.797 161.403C329.085 161.403 330.129 160.726 330.129 159.892C330.129 159.057 329.085 158.38 327.797 158.38C326.509 158.38 325.465 159.057 325.465 159.892C325.465 160.726 326.509 161.403 327.797 161.403Z" fill="#44A85F"/>
<path d="M410.712 208.695C411.168 207.764 409.077 205.802 406.042 204.313C403.008 202.824 400.179 202.373 399.723 203.304C399.268 204.236 401.358 206.198 404.393 207.687C407.427 209.175 410.256 209.627 410.712 208.695Z" fill="#00993E"/>
<path d="M235.174 206.106C238.208 204.617 240.299 202.655 239.843 201.724C239.388 200.792 236.559 201.244 233.524 202.732C230.49 204.221 228.399 206.183 228.855 207.115C229.31 208.046 232.139 207.595 235.174 206.106Z" fill="#00993E"/>
<path opacity="0.17" d="M390.973 184.508C394.343 184.508 397.074 181.772 397.074 178.398C397.074 175.023 394.343 172.288 390.973 172.288C387.604 172.288 384.873 175.023 384.873 178.398C384.873 181.772 387.604 184.508 390.973 184.508Z" fill="#006D2C"/>
<path opacity="0.17" d="M412.542 177.342C415.314 176.384 416.785 173.356 415.829 170.58C414.872 167.804 411.85 166.33 409.078 167.288C406.306 168.246 404.835 171.273 405.791 174.05C406.748 176.826 409.77 178.3 412.542 177.342Z" fill="#006D2C"/>
<path opacity="0.17" d="M412.309 193.525C414.377 192.81 415.475 190.551 414.762 188.48C414.048 186.408 411.793 185.309 409.725 186.024C407.657 186.738 406.559 188.997 407.272 191.069C407.986 193.14 410.241 194.24 412.309 193.525Z" fill="#006D2C"/>
<path opacity="0.17" d="M249.062 183.484C252.431 183.484 255.162 180.748 255.162 177.374C255.162 173.999 252.431 171.264 249.062 171.264C245.693 171.264 242.962 173.999 242.962 177.374C242.962 180.748 245.693 183.484 249.062 183.484Z" fill="#006D2C"/>
<path opacity="0.17" d="M234.23 172.983C235.187 170.207 233.715 167.18 230.943 166.222C228.171 165.264 225.149 166.738 224.193 169.514C223.236 172.29 224.708 175.318 227.479 176.276C230.251 177.234 233.274 175.76 234.23 172.983Z" fill="#006D2C"/>
<path opacity="0.17" d="M232.747 190C233.461 187.929 232.363 185.67 230.294 184.955C228.226 184.241 225.971 185.34 225.258 187.412C224.544 189.483 225.642 191.742 227.71 192.457C229.778 193.172 232.033 192.072 232.747 190Z" fill="#006D2C"/>
<path opacity="0.17" d="M322.423 142.859C323.4 141.307 322.935 139.256 321.386 138.278C319.836 137.299 317.788 137.765 316.811 139.317C315.835 140.869 316.299 142.92 317.849 143.899C319.398 144.877 321.446 144.412 322.423 142.859Z" fill="#006D2C"/>
<path opacity="0.17" d="M308.198 135.316C311.638 135.316 314.427 132.522 314.427 129.077C314.427 128.672 314.38 128.276 314.307 127.894C310.132 128.032 306.03 128.352 301.998 128.81C301.995 128.901 301.972 128.986 301.972 129.077C301.972 132.525 304.758 135.316 308.198 135.316Z" fill="#006D2C"/>
<path opacity="0.17" d="M331.005 135.316C334.445 135.316 337.234 132.522 337.234 129.077C337.234 128.986 337.211 128.901 337.208 128.81C333.176 128.352 329.071 128.032 324.899 127.894C324.826 128.279 324.779 128.672 324.779 129.077C324.776 132.525 327.565 135.316 331.005 135.316Z" fill="#006D2C"/>
<path d="M362.201 390.685C362.47 389.816 362.848 389.053 363.229 388.504C363.807 387.671 364.041 386.949 364.053 386.373C363.918 386.734 363.739 387.116 363.446 387.539C362.933 388.281 362.441 389.429 362.201 390.685Z" fill="#2ECC71"/>
<path opacity="0.48" d="M238.027 301.833C241.743 298.373 246.196 294.422 250.873 290.32C250.876 290.314 250.878 290.311 250.881 290.305C246.39 294.17 241.919 298.103 238.027 301.833Z" fill="#00993E"/>
<path opacity="0.48" d="M287.07 370.409L267.33 364.742C267.304 364.733 267.275 364.73 267.245 364.727C265.88 364.662 264.635 365.199 263.729 366.092L251.784 360.448C251.784 360.448 246.319 360.448 244.881 360.477C244.881 360.477 254.227 368.146 263.401 372.486L268.681 388.748C269.156 390.244 271.075 390.224 271.183 388.084L271.626 381.273C271.693 380.252 272.88 379.354 273.861 380.143L280.287 386.332C281.485 387.377 283.334 386.086 282.394 384.228L278.415 376.307C278.025 375.257 278.297 374.535 279.695 374.068L286.457 372.621C288.166 372.193 288.019 370.74 287.07 370.409Z" fill="#00993E"/>
<path opacity="0.48" d="M240.105 302.417C243.82 298.957 248.274 295.006 252.95 290.904C252.953 290.898 252.956 290.895 252.959 290.889C248.464 294.751 243.996 298.684 240.105 302.417Z" fill="#00993E"/>
<path d="M230.931 312.207C232.088 310.188 235.534 306.675 240.105 302.417C243.996 298.687 248.464 294.751 252.959 290.892C253.518 289.88 254.075 288.923 254.611 288.078C255.139 287.244 255.657 286.355 256.164 285.436C256.158 285.439 256.15 285.442 256.144 285.445C259.191 279.922 261.752 273.108 262.839 268.468V268.465C263.017 267.708 263.152 267.015 263.246 266.39C263.252 266.352 263.255 266.319 263.261 266.281C263.349 265.683 263.398 265.151 263.398 264.705C263.398 264.661 263.39 264.62 263.387 264.576C263.381 264.168 263.322 263.775 263.24 263.388C263.202 263.215 263.158 263.047 263.105 262.877C263.029 262.625 262.932 262.378 262.83 262.132C262.686 261.803 262.522 261.483 262.335 261.166C262.229 260.99 262.133 260.814 262.015 260.644C261.834 260.38 261.632 260.124 261.421 259.869C261.362 259.799 261.306 259.731 261.245 259.661C261.186 259.593 261.122 259.529 261.06 259.461C260.659 260.438 259.255 262.217 257.157 264.591C253.451 268.926 247.354 275.132 236.434 287.083C236.384 287.138 236.334 287.194 236.284 287.25C236.964 291.702 237.682 300.424 230.931 312.207Z" fill="#2ECC71"/>
<path opacity="0.48" d="M230.931 312.207C232.088 310.188 235.534 306.675 240.105 302.417C243.996 298.687 248.464 294.751 252.959 290.892C253.518 289.88 254.075 288.923 254.611 288.078C255.139 287.244 255.657 286.355 256.164 285.436C256.158 285.439 256.15 285.442 256.144 285.445C259.191 279.922 261.752 273.108 262.839 268.468V268.465C263.017 267.708 263.152 267.015 263.246 266.39C263.252 266.352 263.255 266.319 263.261 266.281C263.349 265.683 263.398 265.151 263.398 264.705C263.398 264.661 263.39 264.62 263.387 264.576C263.381 264.168 263.322 263.775 263.24 263.388C263.202 263.215 263.158 263.047 263.105 262.877C263.029 262.625 262.932 262.378 262.83 262.132C262.686 261.803 262.522 261.483 262.335 261.166C262.229 260.99 262.133 260.814 262.015 260.644C261.834 260.38 261.632 260.124 261.421 259.869C261.362 259.799 261.306 259.731 261.245 259.661C261.186 259.593 261.122 259.529 261.06 259.461C260.659 260.438 259.255 262.217 257.157 264.591C253.451 268.926 247.354 275.132 236.434 287.083C236.384 287.138 236.334 287.194 236.284 287.25C236.964 291.702 237.682 300.424 230.931 312.207Z" fill="#00993E"/>
<path d="M268.819 364.492C266.097 364.398 256.434 356.95 247.172 347.494C238.37 338.508 229.929 327.711 228.156 319.629C227.351 315.952 232.66 309.56 240.108 302.417C235.537 306.675 232.091 310.188 230.934 312.207C237.685 300.424 236.967 291.702 236.29 287.25C225.033 299.91 214.344 313.671 214.98 321.498C217.939 341.516 258.444 372.489 268.719 373.986C269.844 374.15 270.392 371.395 270.331 368.809C270.278 366.605 268.819 364.492 268.819 364.492Z" fill="#2ECC71"/>
<path d="M271.769 387.577L272.212 380.765C272.279 379.744 273.466 378.846 274.447 379.635L280.873 385.825C282.071 386.869 283.92 385.578 282.98 383.72L279.001 375.8C278.611 374.752 278.883 374.027 280.281 373.56L287.043 372.114C288.746 371.691 288.602 370.238 287.653 369.91L267.914 364.243C267.887 364.234 267.858 364.231 267.829 364.228C265.276 364.108 263.094 366.05 262.912 368.601C262.909 368.648 262.915 368.695 262.93 368.739L269.264 388.246C269.742 389.737 271.661 389.716 271.769 387.577Z" fill="#2ECC71"/>
<path opacity="0.48" d="M401.823 301.833C398.108 298.373 393.654 294.422 388.978 290.32C388.975 290.314 388.972 290.311 388.969 290.305C393.461 294.17 397.932 298.103 401.823 301.833Z" fill="#00993E"/>
<path opacity="0.48" d="M352.781 370.409L372.52 364.742C372.547 364.733 372.576 364.73 372.605 364.727C373.971 364.662 375.216 365.199 376.121 366.092L388.067 360.448C388.067 360.448 393.531 360.448 394.97 360.477C394.97 360.477 385.623 368.146 376.449 372.486L371.17 388.748C370.695 390.244 368.776 390.224 368.667 388.084L368.225 381.273C368.158 380.252 366.971 379.354 365.989 380.143L359.564 386.332C358.365 387.377 356.517 386.086 357.457 384.228L361.436 376.307C361.826 375.257 361.553 374.535 360.156 374.068L353.393 372.621C351.685 372.193 351.832 370.74 352.781 370.409Z" fill="#00993E"/>
<path opacity="0.48" d="M399.746 302.417C396.031 298.957 391.577 295.006 386.901 290.904C386.898 290.898 386.895 290.895 386.892 290.889C391.387 294.751 395.855 298.684 399.746 302.417Z" fill="#00993E"/>
<path d="M408.92 312.207C407.762 310.188 404.317 306.675 399.746 302.417C395.855 298.687 391.387 294.751 386.892 290.892C386.332 289.88 385.776 288.923 385.239 288.078C384.712 287.244 384.193 286.355 383.687 285.436C383.692 285.439 383.701 285.442 383.707 285.445C380.66 279.922 378.099 273.108 377.012 268.468V268.465C376.833 267.708 376.698 267.015 376.605 266.39C376.599 266.352 376.596 266.319 376.59 266.281C376.502 265.683 376.452 265.151 376.452 264.705C376.452 264.661 376.461 264.62 376.464 264.576C376.47 264.168 376.529 263.775 376.611 263.388C376.649 263.215 376.693 263.047 376.745 262.877C376.822 262.625 376.918 262.378 377.021 262.132C377.164 261.803 377.328 261.483 377.516 261.166C377.621 260.99 377.718 260.814 377.835 260.644C378.017 260.38 378.219 260.124 378.43 259.869C378.489 259.799 378.544 259.731 378.606 259.661C378.664 259.593 378.729 259.529 378.79 259.461C379.192 260.438 380.595 262.217 382.693 264.591C386.4 268.926 392.497 275.132 403.417 287.083C403.467 287.138 403.517 287.194 403.567 287.25C402.887 291.702 402.169 300.424 408.92 312.207Z" fill="#2ECC71"/>
<path opacity="0.48" d="M408.92 312.207C407.762 310.188 404.317 306.675 399.746 302.417C395.855 298.687 391.387 294.751 386.892 290.892C386.332 289.88 385.776 288.923 385.239 288.078C384.712 287.244 384.193 286.355 383.687 285.436C383.692 285.439 383.701 285.442 383.707 285.445C380.66 279.922 378.099 273.108 377.012 268.468V268.465C376.833 267.708 376.698 267.015 376.605 266.39C376.599 266.352 376.596 266.319 376.59 266.281C376.502 265.683 376.452 265.151 376.452 264.705C376.452 264.661 376.461 264.62 376.464 264.576C376.47 264.168 376.529 263.775 376.611 263.388C376.649 263.215 376.693 263.047 376.745 262.877C376.822 262.625 376.918 262.378 377.021 262.132C377.164 261.803 377.328 261.483 377.516 261.166C377.621 260.99 377.718 260.814 377.835 260.644C378.017 260.38 378.219 260.124 378.43 259.869C378.489 259.799 378.544 259.731 378.606 259.661C378.664 259.593 378.729 259.529 378.79 259.461C379.192 260.438 380.595 262.217 382.693 264.591C386.4 268.926 392.497 275.132 403.417 287.083C403.467 287.138 403.517 287.194 403.567 287.25C402.887 291.702 402.169 300.424 408.92 312.207Z" fill="#00993E"/>
<path d="M371.032 364.492C373.754 364.398 383.417 356.95 392.679 347.494C401.48 338.508 409.922 327.711 411.694 319.629C412.5 315.952 407.191 309.56 399.743 302.417C404.314 306.675 407.759 310.188 408.917 312.207C402.166 300.424 402.884 291.702 403.561 287.25C414.818 299.91 425.506 313.671 424.871 321.498C421.911 341.516 381.407 372.489 371.131 373.986C370.006 374.15 369.458 371.395 369.52 368.809C369.573 366.605 371.032 364.492 371.032 364.492Z" fill="#2ECC71"/>
<path d="M368.081 387.577L367.639 380.765C367.572 379.744 366.385 378.846 365.403 379.635L358.978 385.825C357.78 386.869 355.931 385.578 356.871 383.72L360.85 375.8C361.24 374.752 360.967 374.027 359.57 373.56L352.807 372.114C351.105 371.691 351.249 370.238 352.198 369.91L371.937 364.243C371.964 364.234 371.993 364.231 372.022 364.228C374.574 364.108 376.757 366.05 376.939 368.601C376.942 368.648 376.936 368.695 376.921 368.739L370.587 388.246C370.109 389.737 368.19 389.716 368.081 387.577Z" fill="#2ECC71"/>
<defs>
<radialGradient id="paint0_radial" cx="0" cy="0" r="1" gradientUnits="userSpaceOnUse" gradientTransform="translate(125.73 201.151) scale(122.583 70.1691)">
<stop offset="0.2224" stop-color="#1D7F45"/>
<stop offset="0.7944" stop-color="#138641"/>
<stop offset="1" stop-color="#0E893F"/>
</radialGradient>
<radialGradient id="paint1_radial" cx="0" cy="0" r="1" gradientUnits="userSpaceOnUse" gradientTransform="translate(156.542 215.275) scale(11.1047 11.1223)">
<stop offset="0.4702" stop-color="#2ECC71"/>
<stop offset="0.9577" stop-color="#28C266"/>
<stop offset="1" stop-color="#27C165"/>
</radialGradient>
<radialGradient id="paint2_radial" cx="0" cy="0" r="1" gradientUnits="userSpaceOnUse" gradientTransform="translate(-4233.07 71.8341) scale(3259.15 3264.42)">
<stop offset="0.4702" stop-color="#2ECC71"/>
<stop offset="0.9577" stop-color="#28C266"/>
<stop offset="1" stop-color="#27C165"/>
</radialGradient>
<radialGradient id="paint3_radial" cx="0" cy="0" r="1" gradientUnits="userSpaceOnUse" gradientTransform="translate(136.955 159.235) scale(57.002 43.3572)">
<stop offset="0.4702" stop-color="#2ECC71"/>
<stop offset="0.9577" stop-color="#28C266"/>
<stop offset="1" stop-color="#27C165"/>
</radialGradient>
<linearGradient id="paint4_linear" x1="136.772" y1="106.071" x2="136.772" y2="67.1487" gradientUnits="userSpaceOnUse">
<stop stop-color="#3BE07E"/>
<stop offset="0.0339" stop-color="#3ADF7D"/>
<stop offset="0.5522" stop-color="#31D174"/>
<stop offset="1" stop-color="#2ECC71"/>
</linearGradient>
<radialGradient id="paint5_radial" cx="0" cy="0" r="1" gradientUnits="userSpaceOnUse" gradientTransform="translate(174.302 33.0051) scale(16.0746 16.1005)">
<stop offset="0.5167" stop-color="white"/>
<stop offset="0.737" stop-color="#F7F7F7"/>
<stop offset="1" stop-color="#E6E7E8"/>
</radialGradient>
<radialGradient id="paint6_radial" cx="0" cy="0" r="1" gradientUnits="userSpaceOnUse" gradientTransform="translate(99.2421 33.0052) rotate(180) scale(16.0746 16.1005)">
<stop offset="0.5167" stop-color="white"/>
<stop offset="0.737" stop-color="#F7F7F7"/>
<stop offset="1" stop-color="#E6E7E8"/>
</radialGradient>
<linearGradient id="paint7_linear" x1="136.772" y1="114.463" x2="136.772" y2="64.6409" gradientUnits="userSpaceOnUse">
<stop stop-color="#2ECC71"/>
<stop offset="0.3969" stop-color="#2AC66A"/>
<stop offset="1" stop-color="#27C165"/>
</linearGradient>
<radialGradient id="paint8_radial" cx="0" cy="0" r="1" gradientUnits="userSpaceOnUse" gradientTransform="translate(518.732 192.153) scale(122.583 70.1691)">
<stop offset="0.2224" stop-color="#1D7F45"/>
<stop offset="0.7944" stop-color="#138641"/>
<stop offset="1" stop-color="#0E893F"/>
</radialGradient>
<radialGradient id="paint9_radial" cx="0" cy="0" r="1" gradientUnits="userSpaceOnUse" gradientTransform="translate(546.614 206.277) scale(11.1045 11.1231)">
<stop offset="0.4702" stop-color="#2ECC71"/>
<stop offset="0.9577" stop-color="#28C266"/>
<stop offset="1" stop-color="#27C165"/>
</radialGradient>
<radialGradient id="paint10_radial" cx="0" cy="0" r="1" gradientUnits="userSpaceOnUse" gradientTransform="translate(-3843 62.8358) scale(3259.15 3264.42)">
<stop offset="0.4702" stop-color="#2ECC71"/>
<stop offset="0.9577" stop-color="#28C266"/>
<stop offset="1" stop-color="#27C165"/>
</radialGradient>
<radialGradient id="paint11_radial" cx="0" cy="0" r="1" gradientUnits="userSpaceOnUse" gradientTransform="translate(527.027 150.236) scale(57.0019 43.3572)">
<stop offset="0.4702" stop-color="#2ECC71"/>
<stop offset="0.9577" stop-color="#28C266"/>
<stop offset="1" stop-color="#27C165"/>
</radialGradient>
<linearGradient id="paint12_linear" x1="526.844" y1="97.073" x2="526.844" y2="58.1502" gradientUnits="userSpaceOnUse">
<stop stop-color="#3BE07E"/>
<stop offset="0.0339" stop-color="#3ADF7D"/>
<stop offset="0.5522" stop-color="#31D174"/>
<stop offset="1" stop-color="#2ECC71"/>
</linearGradient>
<radialGradient id="paint13_radial" cx="0" cy="0" r="1" gradientUnits="userSpaceOnUse" gradientTransform="translate(564.375 24.007) scale(16.0746 16.1005)">
<stop offset="0.5167" stop-color="white"/>
<stop offset="0.737" stop-color="#F7F7F7"/>
<stop offset="1" stop-color="#E6E7E8"/>
</radialGradient>
<radialGradient id="paint14_radial" cx="0" cy="0" r="1" gradientUnits="userSpaceOnUse" gradientTransform="translate(489.315 24.007) rotate(180) scale(16.0746 16.1005)">
<stop offset="0.5167" stop-color="white"/>
<stop offset="0.737" stop-color="#F7F7F7"/>
<stop offset="1" stop-color="#E6E7E8"/>
</radialGradient>
<linearGradient id="paint15_linear" x1="526.844" y1="105.465" x2="526.844" y2="55.6428" gradientUnits="userSpaceOnUse">
<stop stop-color="#2ECC71"/>
<stop offset="0.3969" stop-color="#2AC66A"/>
<stop offset="1" stop-color="#27C165"/>
</linearGradient>
<radialGradient id="paint16_radial" cx="0" cy="0" r="1" gradientUnits="userSpaceOnUse" gradientTransform="translate(308.073 378.795) scale(176.578 101.077)">
<stop offset="0.2224" stop-color="#1D7F45"/>
<stop offset="0.7944" stop-color="#138641"/>
<stop offset="1" stop-color="#0E893F"/>
</radialGradient>
<radialGradient id="paint17_radial" cx="0" cy="0" r="1" gradientUnits="userSpaceOnUse" gradientTransform="translate(348.236 399.138) scale(15.9963 16.0219)">
<stop offset="0.4702" stop-color="#2ECC71"/>
<stop offset="0.9577" stop-color="#28C266"/>
<stop offset="1" stop-color="#27C165"/>
</radialGradient>
<radialGradient id="paint18_radial" cx="0" cy="0" r="1" gradientUnits="userSpaceOnUse" gradientTransform="translate(-5974.91 192.515) scale(4694.75 4702.32)">
<stop offset="0.4702" stop-color="#2ECC71"/>
<stop offset="0.9577" stop-color="#28C266"/>
<stop offset="1" stop-color="#27C165"/>
</radialGradient>
<radialGradient id="paint19_radial" cx="0" cy="0" r="1" gradientUnits="userSpaceOnUse" gradientTransform="translate(320.022 318.414) scale(82.1103 62.4553)">
<stop offset="0.4702" stop-color="#2ECC71"/>
<stop offset="0.9577" stop-color="#28C266"/>
<stop offset="1" stop-color="#27C165"/>
</radialGradient>
<linearGradient id="paint20_linear" x1="319.758" y1="241.832" x2="319.758" y2="185.766" gradientUnits="userSpaceOnUse">
<stop stop-color="#3BE07E"/>
<stop offset="0.0339" stop-color="#3ADF7D"/>
<stop offset="0.5522" stop-color="#31D174"/>
<stop offset="1" stop-color="#2ECC71"/>
</linearGradient>
<radialGradient id="paint21_radial" cx="0" cy="0" r="1" gradientUnits="userSpaceOnUse" gradientTransform="translate(373.82 136.583) scale(23.1549 23.1923)">
<stop offset="0.5167" stop-color="white"/>
<stop offset="0.737" stop-color="#F7F7F7"/>
<stop offset="1" stop-color="#E6E7E8"/>
</radialGradient>
<radialGradient id="paint22_radial" cx="0" cy="0" r="1" gradientUnits="userSpaceOnUse" gradientTransform="translate(265.697 136.583) rotate(180) scale(23.1549 23.1923)">
<stop offset="0.5167" stop-color="white"/>
<stop offset="0.737" stop-color="#F7F7F7"/>
<stop offset="1" stop-color="#E6E7E8"/>
</radialGradient>
<linearGradient id="paint23_linear" x1="319.758" y1="253.921" x2="319.758" y2="182.153" gradientUnits="userSpaceOnUse">
<stop stop-color="#2ECC71"/>
<stop offset="0.3969" stop-color="#2AC66A"/>
<stop offset="1" stop-color="#27C165"/>
</linearGradient>
</defs>
</svg>
